<svg width="38" height="38" viewBox="0 0 38 38" fill="none" xmlns="http://www.w3.org/2000/svg">
<path d="M32.9531 22.5625C32.9531 22.7987 32.8593 23.0252 32.6923 23.1923C32.5252 23.3593 32.2987 23.4531 32.0625 23.4531H28.2031V26.4219H30.875C31.1112 26.4219 31.3377 26.5157 31.5048 26.6827C31.6718 26.8498 31.7656 27.0763 31.7656 27.3125C31.7656 27.5487 31.6718 27.7752 31.5048 27.9423C31.3377 28.1093 31.1112 28.2031 30.875 28.2031H28.2031V30.875C28.2031 31.1112 28.1093 31.3377 27.9423 31.5048C27.7752 31.6718 27.5487 31.7656 27.3125 31.7656C27.0763 31.7656 26.8498 31.6718 26.6827 31.5048C26.5157 31.3377 26.4219 31.1112 26.4219 30.875V22.5625C26.4219 22.3263 26.5157 22.0998 26.6827 21.9327C26.8498 21.7657 27.0763 21.6719 27.3125 21.6719H32.0625C32.2987 21.6719 32.5252 21.7657 32.6923 21.9327C32.8593 22.0998 32.9531 22.3263 32.9531 22.5625ZM13.3594 25.5312C13.3594 26.5548 12.9528 27.5365 12.229 28.2602C11.5052 28.984 10.5236 29.3906 9.5 29.3906H8.01562V30.875C8.01562 31.1112 7.92179 31.3377 7.75477 31.5048C7.58774 31.6718 7.36121 31.7656 7.125 31.7656C6.88879 31.7656 6.66226 31.6718 6.49523 31.5048C6.32821 31.3377 6.23438 31.1112 6.23438 30.875V22.5625C6.23438 22.3263 6.32821 22.0998 6.49523 21.9327C6.66226 21.7657 6.88879 21.6719 7.125 21.6719H9.5C10.5236 21.6719 11.5052 22.0785 12.229 22.8023C12.9528 23.526 13.3594 24.5077 13.3594 25.5312ZM11.5781 25.5312C11.5781 24.9801 11.3592 24.4515 10.9695 24.0618C10.5797 23.6721 10.0512 23.4531 9.5 23.4531H8.01562V27.6094H9.5C10.0512 27.6094 10.5797 27.3904 10.9695 27.0007C11.3592 26.611 11.5781 26.0824 11.5781 25.5312ZM24.0469 26.7188C24.0469 28.0573 23.5152 29.341 22.5687 30.2874C21.6222 31.2339 20.3385 31.7656 19 31.7656H16.625C16.3888 31.7656 16.1623 31.6718 15.9952 31.5048C15.8282 31.3377 15.7344 31.1112 15.7344 30.875V22.5625C15.7344 22.3263 15.8282 22.0998 15.9952 21.9327C16.1623 21.7657 16.3888 21.6719 16.625 21.6719H19C20.3385 21.6719 21.6222 22.2036 22.5687 23.1501C23.5152 24.0965 24.0469 25.3802 24.0469 26.7188ZM22.2656 26.7188C22.2656 25.8527 21.9216 25.022 21.3091 24.4096C20.6967 23.7972 19.8661 23.4531 19 23.4531H17.5156V29.9844H19C19.8661 29.9844 20.6967 29.6403 21.3091 29.0279C21.9216 28.4155 22.2656 27.5848 22.2656 26.7188ZM6.23438 16.625V5.9375C6.23438 5.38635 6.45332 4.85777 6.84304 4.46804C7.23277 4.07832 7.76135 3.85938 8.3125 3.85938H22.5625C22.6797 3.85928 22.7957 3.88231 22.904 3.92714C23.0122 3.97197 23.1106 4.03772 23.1934 4.12063L31.5059 12.4331C31.6724 12.6002 31.7658 12.8266 31.7656 13.0625V16.625C31.7656 16.8612 31.6718 17.0877 31.5048 17.2548C31.3377 17.4218 31.1112 17.5156 30.875 17.5156C30.6388 17.5156 30.4123 17.4218 30.2452 17.2548C30.0782 17.0877 29.9844 16.8612 29.9844 16.625V13.9531H22.5625C22.3263 13.9531 22.0998 13.8593 21.9327 13.6923C21.7657 13.5252 21.6719 13.2987 21.6719 13.0625V5.64063H8.3125C8.23376 5.64063 8.15825 5.6719 8.10258 5.72758C8.0469 5.78325 8.01562 5.85876 8.01562 5.9375V16.625C8.01562 16.8612 7.92179 17.0877 7.75477 17.2548C7.58774 17.4218 7.36121 17.5156 7.125 17.5156C6.88879 17.5156 6.66226 17.4218 6.49523 17.2548C6.32821 17.0877 6.23438 16.8612 6.23438 16.625ZM23.4531 12.1719H28.7256L23.4531 6.89938V12.1719Z" fill="white"/>
</svg>
