<svg width="598" height="598" viewBox="0 0 598 598" fill="none" xmlns="http://www.w3.org/2000/svg">
<g clip-path="url(#clip0_408_22)">
<rect width="598" height="598" fill="black"/>
<g filter="url(#filter0_f_408_22)">
<path d="M240.244 370.998C292.3 329.878 388.129 345.986 378.943 367.49C367.077 399.934 235.402 403.868 244.971 397.669C285.158 371.638 382.233 373.757 380.85 402.196C378.943 441.431 239.736 439.104 245.833 424.581" stroke="#FFB800" stroke-opacity="0.8" stroke-width="10"/>
<path d="M245.834 424.584C248.883 417.072 371.332 404.552 382.002 436.102C392.123 466.029 256.79 471.338 248.373 454.627" stroke="#FFB800" stroke-opacity="0.8" stroke-width="10"/>
<path d="M228.049 363.988C239.225 292.878 81.212 240.798 124.902 148.656" stroke="#FFB800" stroke-opacity="0.8" stroke-width="10"/>
<path d="M386.067 343.457C356.831 273.899 480.575 186.218 427.732 108.6" stroke="#FFB800" stroke-opacity="0.8" stroke-width="10"/>
<path d="M124.92 148.649C184.897 28.4627 348.978 9.94054 427.72 108.588" stroke="#FFB800" stroke-opacity="0.8" stroke-width="10"/>
</g>
<path d="M241.206 367.36C239.697 368.569 239.455 370.772 240.663 372.28C241.872 373.789 244.075 374.031 245.583 372.823L241.206 367.36ZM375.717 366.696L372.491 365.338L372.455 365.422L372.424 365.509L375.717 366.696ZM247.904 395.908L245.982 392.983H245.982L247.904 395.908ZM377.537 400.29L381.033 400.458L377.537 400.29ZM245.583 372.823C269.501 353.654 303.796 347.658 331.275 349.156C345 349.904 356.677 352.507 364.249 356.022C368.066 357.794 370.523 359.653 371.786 361.335C372.917 362.841 373.03 364.057 372.491 365.338L378.943 368.054C380.595 364.13 379.768 360.306 377.383 357.131C375.13 354.131 371.494 351.668 367.196 349.673C358.539 345.654 345.9 342.943 331.656 342.167C303.199 340.616 266.952 346.726 241.206 367.36L245.583 372.823ZM249.826 398.833C268.138 386.798 300.04 381.031 327.491 381.825C341.169 382.221 353.36 384.241 361.92 387.694C370.735 391.251 374.255 395.639 374.041 400.123L381.033 400.458C381.477 391.177 373.916 384.986 364.539 381.203C354.907 377.317 341.796 375.237 327.694 374.828C299.584 374.015 266.01 379.821 245.982 392.983L249.826 398.833ZM245.982 392.983C245.562 393.259 244.288 394.142 243.989 395.831C243.604 398.007 245.067 399.337 245.708 399.784C246.393 400.262 247.16 400.526 247.718 400.686C248.339 400.865 249.035 401.005 249.764 401.121C252.63 401.574 257.058 401.793 262.433 401.791C273.266 401.787 288.618 400.881 304.594 398.799C320.548 396.721 337.298 393.448 350.854 388.652C357.629 386.255 363.74 383.431 368.585 380.097C373.403 376.78 377.25 372.762 379.009 367.883L372.424 365.509C371.353 368.48 368.799 371.451 364.616 374.33C360.46 377.191 354.97 379.771 348.519 382.053C335.622 386.616 319.416 389.809 303.69 391.858C287.987 393.904 272.937 394.787 262.43 394.791C257.135 394.793 253.158 394.571 250.858 394.207C250.295 394.118 249.901 394.03 249.65 393.958C249.337 393.868 249.45 393.859 249.714 394.044C249.933 394.197 251.207 395.211 250.882 397.051C250.752 397.785 250.403 398.264 250.208 398.487C250.01 398.712 249.847 398.82 249.826 398.833L245.982 392.983ZM245.493 420.619C245.072 421.635 244.92 422.759 245.143 423.908C245.361 425.029 245.895 425.96 246.513 426.697C247.686 428.096 249.405 429.087 251.126 429.832C254.648 431.357 259.744 432.501 265.669 433.311C277.621 434.945 293.985 435.355 310.527 434.127C327.041 432.902 344.019 430.025 357.094 424.936C369.838 419.976 380.468 412.249 381.033 400.458L374.041 400.123C373.696 407.32 367.042 413.553 354.555 418.413C342.399 423.144 326.197 425.945 310.009 427.147C293.849 428.346 277.988 427.93 266.617 426.375C260.882 425.591 256.542 424.549 253.907 423.408C252.55 422.821 252.011 422.36 251.876 422.199C251.841 422.157 251.958 422.282 252.015 422.572C252.077 422.89 252.017 423.159 251.961 423.296L245.493 420.619Z" fill="#FFC736"/>
<path d="M378.634 433.107L381.955 432L378.634 433.107ZM254.283 449.483C253.424 447.751 251.323 447.045 249.592 447.904C247.861 448.764 247.154 450.864 248.013 452.596L254.283 449.483ZM251.976 423.258C251.731 423.872 251.37 424.107 251.457 424.041C251.495 424.011 251.666 423.895 252.048 423.715C252.806 423.356 253.999 422.93 255.661 422.47C258.956 421.557 263.638 420.632 269.326 419.802C280.679 418.144 295.708 416.914 310.968 416.854C326.261 416.794 341.587 417.911 353.618 420.858C359.637 422.333 364.662 424.226 368.41 426.54C372.154 428.851 374.385 431.428 375.314 434.214L381.955 432C380.338 427.151 376.692 423.427 372.088 420.584C367.488 417.744 361.694 415.63 355.284 414.06C342.458 410.917 326.487 409.793 310.94 409.854C295.359 409.915 280.001 411.169 268.315 412.875C262.483 413.726 257.482 414.702 253.792 415.724C251.96 416.232 250.335 416.782 249.058 417.385C248.422 417.685 247.771 418.046 247.196 418.487C246.669 418.891 245.904 419.59 245.477 420.658L251.976 423.258ZM248.013 452.596C248.925 454.432 250.514 455.79 252.188 456.81C253.896 457.851 255.977 458.713 258.274 459.438C262.873 460.89 268.8 461.935 275.457 462.617C288.802 463.984 305.62 463.946 321.837 462.488C338.007 461.034 353.877 458.143 365.205 453.659C370.834 451.432 375.696 448.676 378.847 445.214C382.159 441.574 383.633 437.036 381.955 432L375.314 434.214C376.05 436.421 375.601 438.38 373.669 440.503C371.576 442.803 367.873 445.075 362.629 447.15C352.214 451.272 337.115 454.086 321.21 455.516C305.353 456.942 288.991 456.966 276.17 455.653C269.745 454.995 264.343 454.013 260.381 452.763C258.399 452.137 256.892 451.479 255.831 450.833C254.737 450.166 254.375 449.668 254.283 449.483L248.013 452.596Z" fill="#FFC736"/>
<path d="M228.301 362.769C228.006 364.68 229.314 366.468 231.224 366.764C233.135 367.06 234.923 365.751 235.219 363.841L228.301 362.769ZM235.219 363.841C238.096 345.267 230.142 327.625 218.126 310.793C206.12 293.974 189.498 277.229 174.186 260.58C158.719 243.764 144.531 226.997 136.597 209.684C128.752 192.564 127.092 175.086 136.481 156.447L130.229 153.298C119.689 174.223 121.699 193.977 130.234 212.6C138.68 231.031 153.584 248.521 169.034 265.319C184.637 282.284 200.756 298.508 212.429 314.86C224.092 331.198 230.755 346.928 228.301 362.769L235.219 363.841Z" fill="#FFC736"/>
<path d="M385.746 342.092C386.485 343.878 385.637 345.925 383.852 346.665C382.066 347.405 380.018 346.557 379.279 344.771L385.746 342.092ZM379.279 344.771C371.835 326.803 374.308 307.352 380.841 287.738C387.361 268.161 398.166 247.771 408.004 227.866C417.931 207.783 426.897 188.158 430.302 169.535C433.678 151.072 431.543 133.855 419.491 118.237L425.033 113.96C438.601 131.543 440.82 150.927 437.188 170.794C433.585 190.5 424.182 210.934 414.28 230.968C404.289 251.18 393.806 270.964 387.482 289.95C381.171 308.897 379.243 326.395 385.746 342.092L379.279 344.771Z" fill="#FFC736"/>
<path d="M133.37 154.866C191.999 39.4997 347.127 20.6004 422.249 116.087" stroke="#FFC736" stroke-width="7"/>
<g filter="url(#filter1_f_408_22)">
<path d="M55.7152 562V519.76H71.2032C73.5499 519.76 75.6832 519.973 77.6032 520.4C79.5659 520.827 81.2299 521.488 82.5952 522.384C83.9606 523.237 85.0059 524.368 85.7312 525.776C86.4992 527.184 86.8832 528.869 86.8832 530.832C86.8832 532.453 86.5632 533.883 85.9232 535.12C85.2832 536.357 84.2592 537.36 82.8512 538.128C81.4859 538.896 79.6726 539.493 77.4112 539.92V540.624C81.3366 540.965 84.1739 542.032 85.9232 543.824C87.7152 545.616 88.6112 547.963 88.6112 550.864C88.6112 553.253 88.0352 555.28 86.8832 556.944C85.7739 558.565 84.0459 559.824 81.6992 560.72C79.3952 561.573 76.4086 562 72.7392 562H55.7152ZM61.3472 557.008H73.3152C76.5152 557.008 78.8832 556.475 80.4192 555.408C81.9979 554.299 82.7872 552.613 82.7872 550.352C82.7872 547.749 81.6992 545.808 79.5232 544.528C77.3899 543.205 74.1472 542.544 69.7952 542.544H61.3472V557.008ZM61.3472 538.192H68.6432C72.8246 538.192 75.9392 537.637 77.9872 536.528C80.0352 535.376 81.0592 533.669 81.0592 531.408C81.0592 529.147 80.1632 527.461 78.3712 526.352C76.6219 525.243 73.9552 524.688 70.3712 524.688H61.3472V538.192ZM98.6097 562V544.08V528.912H103.858L103.346 540.432H104.434C104.818 537.915 105.415 535.739 106.226 533.904C107.036 532.069 108.103 530.64 109.426 529.616C110.791 528.592 112.476 528.08 114.482 528.08C114.908 528.08 115.399 528.123 115.954 528.208C116.508 528.251 117.148 528.4 117.874 528.656L117.554 534.736C116.914 534.48 116.274 534.309 115.634 534.224C114.994 534.096 114.375 534.032 113.778 534.032C112.114 534.032 110.663 534.565 109.426 535.632C108.231 536.699 107.228 538.149 106.418 539.984C105.607 541.776 104.946 543.803 104.434 546.064V562H98.6097ZM125.516 562V528.912H131.34V562H125.516ZM128.46 523.152C127.095 523.152 126.071 522.875 125.388 522.32C124.706 521.765 124.364 520.933 124.364 519.824C124.364 518.715 124.706 517.883 125.388 517.328C126.071 516.773 127.074 516.496 128.396 516.496C129.762 516.496 130.786 516.773 131.468 517.328C132.151 517.883 132.492 518.715 132.492 519.824C132.492 520.891 132.151 521.723 131.468 522.32C130.786 522.875 129.783 523.152 128.46 523.152ZM155.084 573.2C151.586 573.2 148.706 572.923 146.444 572.368C144.226 571.856 142.583 571.045 141.516 569.936C140.45 568.869 139.916 567.525 139.916 565.904C139.916 563.941 140.684 562.32 142.22 561.04C143.756 559.76 146.082 558.907 149.196 558.48V557.328C146.935 557.328 145.228 557.051 144.076 556.496C142.924 555.941 142.348 555.109 142.348 554C142.348 552.848 142.924 551.888 144.076 551.12C145.228 550.309 147.106 549.563 149.708 548.88V547.664C147.106 547.621 145.122 546.853 143.756 545.36C142.391 543.824 141.708 541.84 141.708 539.408C141.708 537.232 142.284 535.355 143.436 533.776C144.631 532.155 146.338 530.917 148.556 530.064C150.818 529.168 153.506 528.72 156.62 528.72H172.236V533.648L161.996 532.048V533.264C164.471 533.776 166.37 534.651 167.692 535.888C169.015 537.083 169.676 538.704 169.676 540.752C169.676 542.587 169.143 544.187 168.076 545.552C167.01 546.917 165.431 547.984 163.34 548.752C161.292 549.477 158.754 549.84 155.724 549.84C155.127 549.84 154.487 549.819 153.804 549.776C153.164 549.691 152.311 549.563 151.244 549.392C150.092 550.117 149.154 550.779 148.428 551.376C147.746 551.973 147.404 552.507 147.404 552.976C147.404 553.445 147.724 553.829 148.364 554.128C149.047 554.384 149.858 554.555 150.796 554.64C151.735 554.725 152.61 554.768 153.42 554.768H160.908C161.762 554.768 162.828 554.853 164.108 555.024C165.431 555.195 166.732 555.557 168.012 556.112C169.335 556.667 170.444 557.52 171.34 558.672C172.236 559.824 172.684 561.424 172.684 563.472C172.684 565.776 172.002 567.653 170.636 569.104C169.271 570.555 167.287 571.6 164.684 572.24C162.082 572.88 158.882 573.2 155.084 573.2ZM155.212 568.4C158.071 568.4 160.375 568.208 162.124 567.824C163.916 567.483 165.218 566.928 166.028 566.16C166.882 565.392 167.308 564.411 167.308 563.216C167.308 562.107 167.01 561.253 166.412 560.656C165.858 560.016 165.154 559.568 164.3 559.312C163.447 559.056 162.594 558.907 161.74 558.864C160.887 558.779 160.162 558.736 159.564 558.736H152.076C149.602 559.291 147.895 560.059 146.956 561.04C146.018 562.021 145.548 563.067 145.548 564.176C145.548 565.371 145.975 566.267 146.828 566.864C147.682 567.461 148.834 567.867 150.284 568.08C151.778 568.293 153.42 568.4 155.212 568.4ZM155.98 546.064C158.668 546.064 160.695 545.509 162.06 544.4C163.426 543.291 164.108 541.797 164.108 539.92C164.108 537.915 163.404 536.272 161.996 534.992C160.631 533.669 158.562 533.008 155.788 533.008C153.1 533.008 151.031 533.627 149.58 534.864C148.172 536.101 147.468 537.701 147.468 539.664C147.468 540.944 147.788 542.075 148.428 543.056C149.111 543.995 150.071 544.741 151.308 545.296C152.588 545.808 154.146 546.064 155.98 546.064ZM181.262 562V541.904V517.2H187.278V527.504C187.278 528.443 187.236 529.403 187.15 530.384C187.108 531.323 187.022 532.283 186.894 533.264C186.809 534.245 186.702 535.248 186.574 536.272C186.446 537.253 186.297 538.256 186.126 539.28H187.214C187.854 536.763 188.665 534.693 189.646 533.072C190.628 531.408 191.844 530.171 193.294 529.36C194.788 528.507 196.558 528.08 198.606 528.08C202.361 528.08 205.156 529.403 206.99 532.048C208.868 534.651 209.806 538.555 209.806 543.76V562H203.918V544.336C203.918 540.496 203.321 537.701 202.126 535.952C200.974 534.16 199.225 533.264 196.878 533.264C194.916 533.264 193.252 533.84 191.886 534.992C190.521 536.144 189.433 537.701 188.622 539.664C187.854 541.627 187.342 543.867 187.086 546.384V562H181.262ZM230.909 562.64C227.837 562.64 225.554 561.808 224.061 560.144C222.567 558.48 221.821 555.941 221.821 552.528V533.776H216.829L216.893 528.912H220.029C221.095 528.912 221.863 528.72 222.333 528.336C222.845 527.952 223.143 527.312 223.229 526.416L223.869 521.424H227.453V528.912H236.989V533.84H227.453V552.4C227.453 554.107 227.837 555.344 228.605 556.112C229.415 556.837 230.567 557.2 232.061 557.2C232.871 557.2 233.703 557.093 234.557 556.88C235.453 556.667 236.327 556.24 237.181 555.6V561.424C235.943 561.893 234.791 562.213 233.725 562.384C232.701 562.555 231.762 562.64 230.909 562.64ZM259.966 562L274.814 519.76H283.39L298.238 562H291.902L279.486 524.688H278.718L266.302 562H259.966ZM267.006 552.528V548.048H291.902V552.528H267.006ZM319.778 562.832C316.876 562.832 314.402 562.363 312.354 561.424C310.348 560.485 308.706 559.227 307.426 557.648C306.188 556.069 305.271 554.256 304.674 552.208C304.119 550.16 303.842 548.027 303.842 545.808C303.842 543.376 304.162 541.093 304.802 538.96C305.442 536.827 306.402 534.949 307.682 533.328C309.004 531.664 310.626 530.384 312.546 529.488C314.508 528.549 316.791 528.08 319.394 528.08C321.911 528.08 324.13 528.528 326.05 529.424C327.97 530.277 329.527 531.493 330.722 533.072C331.959 534.651 332.748 536.528 333.09 538.704L327.522 540.24C327.436 539.045 327.074 537.893 326.434 536.784C325.836 535.675 324.94 534.779 323.746 534.096C322.551 533.371 321.079 533.008 319.33 533.008C317.666 533.008 316.236 533.328 315.042 533.968C313.89 534.608 312.908 535.504 312.098 536.656C311.33 537.808 310.732 539.152 310.306 540.688C309.922 542.224 309.73 543.888 309.73 545.68C309.73 548.155 310.071 550.309 310.754 552.144C311.479 553.979 312.588 555.408 314.082 556.432C315.575 557.456 317.495 557.968 319.842 557.968C321.591 557.968 323.084 557.669 324.322 557.072C325.559 556.432 326.54 555.557 327.266 554.448C327.991 553.296 328.46 551.952 328.674 550.416L334.05 551.632C333.751 553.467 333.196 555.088 332.386 556.496C331.575 557.904 330.551 559.077 329.314 560.016C328.076 560.912 326.647 561.595 325.026 562.064C323.447 562.576 321.698 562.832 319.778 562.832ZM350.341 562.832C348.549 562.832 346.927 562.491 345.477 561.808C344.026 561.083 342.874 560.037 342.021 558.672C341.167 557.264 340.741 555.493 340.741 553.36C340.741 551.781 341.018 550.395 341.573 549.2C342.17 548.005 343.066 546.981 344.261 546.128C345.498 545.275 347.077 544.571 348.997 544.016C350.917 543.461 353.263 542.992 356.037 542.608C357.615 542.395 358.895 542.181 359.877 541.968C360.901 541.755 361.647 541.413 362.117 540.944C362.586 540.432 362.821 539.685 362.821 538.704C362.821 537.083 362.266 535.717 361.157 534.608C360.047 533.499 358.298 532.944 355.909 532.944C354.671 532.944 353.413 533.157 352.133 533.584C350.853 534.011 349.722 534.736 348.741 535.76C347.802 536.741 347.205 538.128 346.949 539.92L341.573 538.128C341.914 536.592 342.469 535.205 343.237 533.968C344.047 532.731 345.071 531.685 346.309 530.832C347.546 529.936 348.975 529.253 350.597 528.784C352.261 528.315 354.095 528.08 356.101 528.08C358.874 528.08 361.178 528.549 363.013 529.488C364.89 530.427 366.277 531.877 367.173 533.84C368.111 535.76 368.581 538.235 368.581 541.264V548.624C368.581 549.947 368.602 551.397 368.645 552.976C368.73 554.512 368.837 556.069 368.965 557.648C369.093 559.184 369.221 560.635 369.349 562H363.973C363.845 560.635 363.717 559.269 363.589 557.904C363.503 556.539 363.439 555.173 363.397 553.808H362.565C361.925 555.387 361.071 556.859 360.005 558.224C358.938 559.589 357.594 560.699 355.973 561.552C354.394 562.405 352.517 562.832 350.341 562.832ZM352.069 558.096C353.007 558.096 353.946 557.947 354.885 557.648C355.866 557.349 356.826 556.859 357.765 556.176C358.746 555.493 359.663 554.619 360.517 553.552C361.413 552.485 362.202 551.205 362.885 549.712V543.312L364.549 543.632C363.866 544.315 362.949 544.827 361.797 545.168C360.687 545.509 359.45 545.787 358.085 546C356.719 546.213 355.354 546.448 353.989 546.704C352.623 546.917 351.365 547.259 350.213 547.728C349.103 548.155 348.207 548.773 347.525 549.584C346.842 550.395 346.501 551.504 346.501 552.912C346.501 554.619 347.013 555.92 348.037 556.816C349.061 557.669 350.405 558.096 352.069 558.096ZM391.465 562.832C388.649 562.832 386.239 562.085 384.233 560.592C382.228 559.099 380.692 557.051 379.625 554.448C378.601 551.845 378.089 548.859 378.089 545.488C378.089 542.117 378.601 539.131 379.625 536.528C380.649 533.925 382.143 531.877 384.105 530.384C386.068 528.891 388.479 528.144 391.337 528.144C393.684 528.144 395.604 528.635 397.097 529.616C398.591 530.597 399.785 531.877 400.681 533.456C401.62 534.992 402.303 536.677 402.729 538.512H403.881C403.668 537.275 403.476 535.995 403.305 534.672C403.135 533.307 402.985 531.984 402.857 530.704C402.729 529.381 402.665 528.208 402.665 527.184V517.2H408.553V545.68V562H403.305L403.625 553.04H402.601C402.089 554.96 401.364 556.667 400.425 558.16C399.487 559.611 398.292 560.763 396.841 561.616C395.391 562.427 393.599 562.832 391.465 562.832ZM392.809 557.712C394.345 557.712 395.732 557.349 396.969 556.624C398.207 555.899 399.252 554.96 400.105 553.808C400.959 552.613 401.599 551.333 402.025 549.968C402.495 548.603 402.729 547.28 402.729 546V545.232C402.729 544.336 402.601 543.376 402.345 542.352C402.089 541.285 401.705 540.219 401.193 539.152C400.724 538.085 400.084 537.104 399.273 536.208C398.505 535.269 397.588 534.544 396.521 534.032C395.455 533.477 394.26 533.2 392.937 533.2C391.017 533.2 389.396 533.755 388.073 534.864C386.793 535.931 385.812 537.403 385.129 539.28C384.489 541.157 384.169 543.269 384.169 545.616C384.169 548.048 384.511 550.181 385.193 552.016C385.876 553.808 386.857 555.216 388.137 556.24C389.46 557.221 391.017 557.712 392.809 557.712ZM434.18 562.832C431.578 562.832 429.274 562.448 427.268 561.68C425.306 560.869 423.642 559.717 422.276 558.224C420.911 556.731 419.887 554.96 419.204 552.912C418.522 550.864 418.18 548.56 418.18 546C418.18 543.397 418.522 541.008 419.204 538.832C419.887 536.656 420.89 534.757 422.212 533.136C423.535 531.515 425.156 530.277 427.076 529.424C428.996 528.528 431.194 528.08 433.668 528.08C435.844 528.08 437.828 528.443 439.62 529.168C441.412 529.893 442.927 531.024 444.164 532.56C445.444 534.053 446.404 535.952 447.044 538.256C447.684 540.517 447.94 543.184 447.812 546.256L421.828 546.448V542.48L444.292 542.288L442.308 544.976C442.522 542.288 442.266 540.069 441.54 538.32C440.815 536.571 439.77 535.248 438.404 534.352C437.082 533.456 435.503 533.008 433.668 533.008C431.706 533.008 429.978 533.52 428.484 534.544C426.991 535.568 425.839 537.04 425.028 538.96C424.26 540.88 423.876 543.205 423.876 545.936C423.876 549.861 424.751 552.869 426.5 554.96C428.25 557.008 430.852 558.032 434.308 558.032C435.631 558.032 436.783 557.883 437.764 557.584C438.788 557.243 439.642 556.795 440.324 556.24C441.05 555.643 441.626 554.96 442.052 554.192C442.522 553.424 442.884 552.592 443.14 551.696L448.26 552.912C447.876 554.448 447.279 555.835 446.468 557.072C445.7 558.267 444.719 559.291 443.524 560.144C442.372 560.997 441.028 561.659 439.492 562.128C437.956 562.597 436.186 562.832 434.18 562.832ZM457.377 562V541.52V528.912H462.561L461.985 539.408H463.073C463.628 536.891 464.375 534.8 465.313 533.136C466.252 531.429 467.404 530.171 468.769 529.36C470.177 528.507 471.777 528.08 473.569 528.08C475.703 528.08 477.452 528.613 478.817 529.68C480.183 530.704 481.185 532.048 481.825 533.712C482.508 535.376 482.849 537.211 482.849 539.216H483.873C484.343 536.827 485.068 534.8 486.049 533.136C487.031 531.472 488.247 530.213 489.697 529.36C491.148 528.507 492.812 528.08 494.689 528.08C496.396 528.08 497.889 528.421 499.169 529.104C500.449 529.787 501.537 530.811 502.433 532.176C503.329 533.499 503.991 535.141 504.417 537.104C504.844 539.067 505.057 541.328 505.057 543.888V562H499.233V544.656C499.233 542.139 498.999 540.048 498.529 538.384C498.06 536.677 497.356 535.419 496.417 534.608C495.521 533.755 494.369 533.328 492.961 533.328C491.383 533.328 489.953 533.883 488.673 534.992C487.436 536.059 486.412 537.573 485.601 539.536C484.833 541.456 484.321 543.653 484.065 546.128V562H478.369V545.232C478.369 542.587 478.135 540.389 477.665 538.64C477.196 536.891 476.492 535.568 475.553 534.672C474.657 533.776 473.484 533.328 472.033 533.328C470.327 533.328 468.855 533.925 467.617 535.12C466.38 536.272 465.377 537.829 464.609 539.792C463.884 541.755 463.415 543.952 463.201 546.384V562H457.377ZM527.311 573.136C525.562 573.136 523.834 572.923 522.127 572.496C520.463 572.112 518.927 571.515 517.519 570.704C516.111 569.893 514.959 568.848 514.063 567.568L517.007 563.344C517.989 564.795 519.375 565.904 521.167 566.672C522.959 567.44 524.922 567.824 527.055 567.824C529.445 567.824 531.429 567.291 533.007 566.224C534.629 565.2 535.845 563.6 536.655 561.424C537.466 559.205 537.893 556.453 537.935 553.168L538.639 546.512H537.423C536.954 549.627 536.207 552.123 535.183 554C534.202 555.835 532.965 557.157 531.471 557.968C530.021 558.779 528.335 559.184 526.415 559.184C524.026 559.184 521.999 558.587 520.335 557.392C518.714 556.155 517.477 554.363 516.623 552.016C515.77 549.627 515.343 546.725 515.343 543.312V528.912H521.167V542.032C521.167 546.171 521.743 549.221 522.895 551.184C524.09 553.104 525.861 554.064 528.207 554.064C529.487 554.064 530.639 553.744 531.663 553.104C532.687 552.464 533.562 551.525 534.287 550.288C535.055 549.051 535.653 547.493 536.079 545.616C536.549 543.696 536.847 541.477 536.975 538.96V528.912H542.799V553.488C542.799 556.091 542.607 558.437 542.223 560.528C541.839 562.619 541.221 564.432 540.367 565.968C539.557 567.547 538.533 568.869 537.295 569.936C536.058 571.003 534.607 571.792 532.943 572.304C531.279 572.859 529.402 573.136 527.311 573.136Z" fill="#FFC736" fill-opacity="0.6"/>
</g>
<path d="M55.7152 562V519.76H71.2032C73.5499 519.76 75.6832 519.973 77.6032 520.4C79.5659 520.827 81.2299 521.488 82.5952 522.384C83.9606 523.237 85.0059 524.368 85.7312 525.776C86.4992 527.184 86.8832 528.869 86.8832 530.832C86.8832 532.453 86.5632 533.883 85.9232 535.12C85.2832 536.357 84.2592 537.36 82.8512 538.128C81.4859 538.896 79.6726 539.493 77.4112 539.92V540.624C81.3366 540.965 84.1739 542.032 85.9232 543.824C87.7152 545.616 88.6112 547.963 88.6112 550.864C88.6112 553.253 88.0352 555.28 86.8832 556.944C85.7739 558.565 84.0459 559.824 81.6992 560.72C79.3952 561.573 76.4086 562 72.7392 562H55.7152ZM61.3472 557.008H73.3152C76.5152 557.008 78.8832 556.475 80.4192 555.408C81.9979 554.299 82.7872 552.613 82.7872 550.352C82.7872 547.749 81.6992 545.808 79.5232 544.528C77.3899 543.205 74.1472 542.544 69.7952 542.544H61.3472V557.008ZM61.3472 538.192H68.6432C72.8246 538.192 75.9392 537.637 77.9872 536.528C80.0352 535.376 81.0592 533.669 81.0592 531.408C81.0592 529.147 80.1632 527.461 78.3712 526.352C76.6219 525.243 73.9552 524.688 70.3712 524.688H61.3472V538.192ZM98.6097 562V544.08V528.912H103.858L103.346 540.432H104.434C104.818 537.915 105.415 535.739 106.226 533.904C107.036 532.069 108.103 530.64 109.426 529.616C110.791 528.592 112.476 528.08 114.482 528.08C114.908 528.08 115.399 528.123 115.954 528.208C116.508 528.251 117.148 528.4 117.874 528.656L117.554 534.736C116.914 534.48 116.274 534.309 115.634 534.224C114.994 534.096 114.375 534.032 113.778 534.032C112.114 534.032 110.663 534.565 109.426 535.632C108.231 536.699 107.228 538.149 106.418 539.984C105.607 541.776 104.946 543.803 104.434 546.064V562H98.6097ZM125.516 562V528.912H131.34V562H125.516ZM128.46 523.152C127.095 523.152 126.071 522.875 125.388 522.32C124.706 521.765 124.364 520.933 124.364 519.824C124.364 518.715 124.706 517.883 125.388 517.328C126.071 516.773 127.074 516.496 128.396 516.496C129.762 516.496 130.786 516.773 131.468 517.328C132.151 517.883 132.492 518.715 132.492 519.824C132.492 520.891 132.151 521.723 131.468 522.32C130.786 522.875 129.783 523.152 128.46 523.152ZM155.084 573.2C151.586 573.2 148.706 572.923 146.444 572.368C144.226 571.856 142.583 571.045 141.516 569.936C140.45 568.869 139.916 567.525 139.916 565.904C139.916 563.941 140.684 562.32 142.22 561.04C143.756 559.76 146.082 558.907 149.196 558.48V557.328C146.935 557.328 145.228 557.051 144.076 556.496C142.924 555.941 142.348 555.109 142.348 554C142.348 552.848 142.924 551.888 144.076 551.12C145.228 550.309 147.106 549.563 149.708 548.88V547.664C147.106 547.621 145.122 546.853 143.756 545.36C142.391 543.824 141.708 541.84 141.708 539.408C141.708 537.232 142.284 535.355 143.436 533.776C144.631 532.155 146.338 530.917 148.556 530.064C150.818 529.168 153.506 528.72 156.62 528.72H172.236V533.648L161.996 532.048V533.264C164.471 533.776 166.37 534.651 167.692 535.888C169.015 537.083 169.676 538.704 169.676 540.752C169.676 542.587 169.143 544.187 168.076 545.552C167.01 546.917 165.431 547.984 163.34 548.752C161.292 549.477 158.754 549.84 155.724 549.84C155.127 549.84 154.487 549.819 153.804 549.776C153.164 549.691 152.311 549.563 151.244 549.392C150.092 550.117 149.154 550.779 148.428 551.376C147.746 551.973 147.404 552.507 147.404 552.976C147.404 553.445 147.724 553.829 148.364 554.128C149.047 554.384 149.858 554.555 150.796 554.64C151.735 554.725 152.61 554.768 153.42 554.768H160.908C161.762 554.768 162.828 554.853 164.108 555.024C165.431 555.195 166.732 555.557 168.012 556.112C169.335 556.667 170.444 557.52 171.34 558.672C172.236 559.824 172.684 561.424 172.684 563.472C172.684 565.776 172.002 567.653 170.636 569.104C169.271 570.555 167.287 571.6 164.684 572.24C162.082 572.88 158.882 573.2 155.084 573.2ZM155.212 568.4C158.071 568.4 160.375 568.208 162.124 567.824C163.916 567.483 165.218 566.928 166.028 566.16C166.882 565.392 167.308 564.411 167.308 563.216C167.308 562.107 167.01 561.253 166.412 560.656C165.858 560.016 165.154 559.568 164.3 559.312C163.447 559.056 162.594 558.907 161.74 558.864C160.887 558.779 160.162 558.736 159.564 558.736H152.076C149.602 559.291 147.895 560.059 146.956 561.04C146.018 562.021 145.548 563.067 145.548 564.176C145.548 565.371 145.975 566.267 146.828 566.864C147.682 567.461 148.834 567.867 150.284 568.08C151.778 568.293 153.42 568.4 155.212 568.4ZM155.98 546.064C158.668 546.064 160.695 545.509 162.06 544.4C163.426 543.291 164.108 541.797 164.108 539.92C164.108 537.915 163.404 536.272 161.996 534.992C160.631 533.669 158.562 533.008 155.788 533.008C153.1 533.008 151.031 533.627 149.58 534.864C148.172 536.101 147.468 537.701 147.468 539.664C147.468 540.944 147.788 542.075 148.428 543.056C149.111 543.995 150.071 544.741 151.308 545.296C152.588 545.808 154.146 546.064 155.98 546.064ZM181.262 562V541.904V517.2H187.278V527.504C187.278 528.443 187.236 529.403 187.15 530.384C187.108 531.323 187.022 532.283 186.894 533.264C186.809 534.245 186.702 535.248 186.574 536.272C186.446 537.253 186.297 538.256 186.126 539.28H187.214C187.854 536.763 188.665 534.693 189.646 533.072C190.628 531.408 191.844 530.171 193.294 529.36C194.788 528.507 196.558 528.08 198.606 528.08C202.361 528.08 205.156 529.403 206.99 532.048C208.868 534.651 209.806 538.555 209.806 543.76V562H203.918V544.336C203.918 540.496 203.321 537.701 202.126 535.952C200.974 534.16 199.225 533.264 196.878 533.264C194.916 533.264 193.252 533.84 191.886 534.992C190.521 536.144 189.433 537.701 188.622 539.664C187.854 541.627 187.342 543.867 187.086 546.384V562H181.262ZM230.909 562.64C227.837 562.64 225.554 561.808 224.061 560.144C222.567 558.48 221.821 555.941 221.821 552.528V533.776H216.829L216.893 528.912H220.029C221.095 528.912 221.863 528.72 222.333 528.336C222.845 527.952 223.143 527.312 223.229 526.416L223.869 521.424H227.453V528.912H236.989V533.84H227.453V552.4C227.453 554.107 227.837 555.344 228.605 556.112C229.415 556.837 230.567 557.2 232.061 557.2C232.871 557.2 233.703 557.093 234.557 556.88C235.453 556.667 236.327 556.24 237.181 555.6V561.424C235.943 561.893 234.791 562.213 233.725 562.384C232.701 562.555 231.762 562.64 230.909 562.64ZM259.966 562L274.814 519.76H283.39L298.238 562H291.902L279.486 524.688H278.718L266.302 562H259.966ZM267.006 552.528V548.048H291.902V552.528H267.006ZM319.778 562.832C316.876 562.832 314.402 562.363 312.354 561.424C310.348 560.485 308.706 559.227 307.426 557.648C306.188 556.069 305.271 554.256 304.674 552.208C304.119 550.16 303.842 548.027 303.842 545.808C303.842 543.376 304.162 541.093 304.802 538.96C305.442 536.827 306.402 534.949 307.682 533.328C309.004 531.664 310.626 530.384 312.546 529.488C314.508 528.549 316.791 528.08 319.394 528.08C321.911 528.08 324.13 528.528 326.05 529.424C327.97 530.277 329.527 531.493 330.722 533.072C331.959 534.651 332.748 536.528 333.09 538.704L327.522 540.24C327.436 539.045 327.074 537.893 326.434 536.784C325.836 535.675 324.94 534.779 323.746 534.096C322.551 533.371 321.079 533.008 319.33 533.008C317.666 533.008 316.236 533.328 315.042 533.968C313.89 534.608 312.908 535.504 312.098 536.656C311.33 537.808 310.732 539.152 310.306 540.688C309.922 542.224 309.73 543.888 309.73 545.68C309.73 548.155 310.071 550.309 310.754 552.144C311.479 553.979 312.588 555.408 314.082 556.432C315.575 557.456 317.495 557.968 319.842 557.968C321.591 557.968 323.084 557.669 324.322 557.072C325.559 556.432 326.54 555.557 327.266 554.448C327.991 553.296 328.46 551.952 328.674 550.416L334.05 551.632C333.751 553.467 333.196 555.088 332.386 556.496C331.575 557.904 330.551 559.077 329.314 560.016C328.076 560.912 326.647 561.595 325.026 562.064C323.447 562.576 321.698 562.832 319.778 562.832ZM350.341 562.832C348.549 562.832 346.927 562.491 345.477 561.808C344.026 561.083 342.874 560.037 342.021 558.672C341.167 557.264 340.741 555.493 340.741 553.36C340.741 551.781 341.018 550.395 341.573 549.2C342.17 548.005 343.066 546.981 344.261 546.128C345.498 545.275 347.077 544.571 348.997 544.016C350.917 543.461 353.263 542.992 356.037 542.608C357.615 542.395 358.895 542.181 359.877 541.968C360.901 541.755 361.647 541.413 362.117 540.944C362.586 540.432 362.821 539.685 362.821 538.704C362.821 537.083 362.266 535.717 361.157 534.608C360.047 533.499 358.298 532.944 355.909 532.944C354.671 532.944 353.413 533.157 352.133 533.584C350.853 534.011 349.722 534.736 348.741 535.76C347.802 536.741 347.205 538.128 346.949 539.92L341.573 538.128C341.914 536.592 342.469 535.205 343.237 533.968C344.047 532.731 345.071 531.685 346.309 530.832C347.546 529.936 348.975 529.253 350.597 528.784C352.261 528.315 354.095 528.08 356.101 528.08C358.874 528.08 361.178 528.549 363.013 529.488C364.89 530.427 366.277 531.877 367.173 533.84C368.111 535.76 368.581 538.235 368.581 541.264V548.624C368.581 549.947 368.602 551.397 368.645 552.976C368.73 554.512 368.837 556.069 368.965 557.648C369.093 559.184 369.221 560.635 369.349 562H363.973C363.845 560.635 363.717 559.269 363.589 557.904C363.503 556.539 363.439 555.173 363.397 553.808H362.565C361.925 555.387 361.071 556.859 360.005 558.224C358.938 559.589 357.594 560.699 355.973 561.552C354.394 562.405 352.517 562.832 350.341 562.832ZM352.069 558.096C353.007 558.096 353.946 557.947 354.885 557.648C355.866 557.349 356.826 556.859 357.765 556.176C358.746 555.493 359.663 554.619 360.517 553.552C361.413 552.485 362.202 551.205 362.885 549.712V543.312L364.549 543.632C363.866 544.315 362.949 544.827 361.797 545.168C360.687 545.509 359.45 545.787 358.085 546C356.719 546.213 355.354 546.448 353.989 546.704C352.623 546.917 351.365 547.259 350.213 547.728C349.103 548.155 348.207 548.773 347.525 549.584C346.842 550.395 346.501 551.504 346.501 552.912C346.501 554.619 347.013 555.92 348.037 556.816C349.061 557.669 350.405 558.096 352.069 558.096ZM391.465 562.832C388.649 562.832 386.239 562.085 384.233 560.592C382.228 559.099 380.692 557.051 379.625 554.448C378.601 551.845 378.089 548.859 378.089 545.488C378.089 542.117 378.601 539.131 379.625 536.528C380.649 533.925 382.143 531.877 384.105 530.384C386.068 528.891 388.479 528.144 391.337 528.144C393.684 528.144 395.604 528.635 397.097 529.616C398.591 530.597 399.785 531.877 400.681 533.456C401.62 534.992 402.303 536.677 402.729 538.512H403.881C403.668 537.275 403.476 535.995 403.305 534.672C403.135 533.307 402.985 531.984 402.857 530.704C402.729 529.381 402.665 528.208 402.665 527.184V517.2H408.553V545.68V562H403.305L403.625 553.04H402.601C402.089 554.96 401.364 556.667 400.425 558.16C399.487 559.611 398.292 560.763 396.841 561.616C395.391 562.427 393.599 562.832 391.465 562.832ZM392.809 557.712C394.345 557.712 395.732 557.349 396.969 556.624C398.207 555.899 399.252 554.96 400.105 553.808C400.959 552.613 401.599 551.333 402.025 549.968C402.495 548.603 402.729 547.28 402.729 546V545.232C402.729 544.336 402.601 543.376 402.345 542.352C402.089 541.285 401.705 540.219 401.193 539.152C400.724 538.085 400.084 537.104 399.273 536.208C398.505 535.269 397.588 534.544 396.521 534.032C395.455 533.477 394.26 533.2 392.937 533.2C391.017 533.2 389.396 533.755 388.073 534.864C386.793 535.931 385.812 537.403 385.129 539.28C384.489 541.157 384.169 543.269 384.169 545.616C384.169 548.048 384.511 550.181 385.193 552.016C385.876 553.808 386.857 555.216 388.137 556.24C389.46 557.221 391.017 557.712 392.809 557.712ZM434.18 562.832C431.578 562.832 429.274 562.448 427.268 561.68C425.306 560.869 423.642 559.717 422.276 558.224C420.911 556.731 419.887 554.96 419.204 552.912C418.522 550.864 418.18 548.56 418.18 546C418.18 543.397 418.522 541.008 419.204 538.832C419.887 536.656 420.89 534.757 422.212 533.136C423.535 531.515 425.156 530.277 427.076 529.424C428.996 528.528 431.194 528.08 433.668 528.08C435.844 528.08 437.828 528.443 439.62 529.168C441.412 529.893 442.927 531.024 444.164 532.56C445.444 534.053 446.404 535.952 447.044 538.256C447.684 540.517 447.94 543.184 447.812 546.256L421.828 546.448V542.48L444.292 542.288L442.308 544.976C442.522 542.288 442.266 540.069 441.54 538.32C440.815 536.571 439.77 535.248 438.404 534.352C437.082 533.456 435.503 533.008 433.668 533.008C431.706 533.008 429.978 533.52 428.484 534.544C426.991 535.568 425.839 537.04 425.028 538.96C424.26 540.88 423.876 543.205 423.876 545.936C423.876 549.861 424.751 552.869 426.5 554.96C428.25 557.008 430.852 558.032 434.308 558.032C435.631 558.032 436.783 557.883 437.764 557.584C438.788 557.243 439.642 556.795 440.324 556.24C441.05 555.643 441.626 554.96 442.052 554.192C442.522 553.424 442.884 552.592 443.14 551.696L448.26 552.912C447.876 554.448 447.279 555.835 446.468 557.072C445.7 558.267 444.719 559.291 443.524 560.144C442.372 560.997 441.028 561.659 439.492 562.128C437.956 562.597 436.186 562.832 434.18 562.832ZM457.377 562V541.52V528.912H462.561L461.985 539.408H463.073C463.628 536.891 464.375 534.8 465.313 533.136C466.252 531.429 467.404 530.171 468.769 529.36C470.177 528.507 471.777 528.08 473.569 528.08C475.703 528.08 477.452 528.613 478.817 529.68C480.183 530.704 481.185 532.048 481.825 533.712C482.508 535.376 482.849 537.211 482.849 539.216H483.873C484.343 536.827 485.068 534.8 486.049 533.136C487.031 531.472 488.247 530.213 489.697 529.36C491.148 528.507 492.812 528.08 494.689 528.08C496.396 528.08 497.889 528.421 499.169 529.104C500.449 529.787 501.537 530.811 502.433 532.176C503.329 533.499 503.991 535.141 504.417 537.104C504.844 539.067 505.057 541.328 505.057 543.888V562H499.233V544.656C499.233 542.139 498.999 540.048 498.529 538.384C498.06 536.677 497.356 535.419 496.417 534.608C495.521 533.755 494.369 533.328 492.961 533.328C491.383 533.328 489.953 533.883 488.673 534.992C487.436 536.059 486.412 537.573 485.601 539.536C484.833 541.456 484.321 543.653 484.065 546.128V562H478.369V545.232C478.369 542.587 478.135 540.389 477.665 538.64C477.196 536.891 476.492 535.568 475.553 534.672C474.657 533.776 473.484 533.328 472.033 533.328C470.327 533.328 468.855 533.925 467.617 535.12C466.38 536.272 465.377 537.829 464.609 539.792C463.884 541.755 463.415 543.952 463.201 546.384V562H457.377ZM527.311 573.136C525.562 573.136 523.834 572.923 522.127 572.496C520.463 572.112 518.927 571.515 517.519 570.704C516.111 569.893 514.959 568.848 514.063 567.568L517.007 563.344C517.989 564.795 519.375 565.904 521.167 566.672C522.959 567.44 524.922 567.824 527.055 567.824C529.445 567.824 531.429 567.291 533.007 566.224C534.629 565.2 535.845 563.6 536.655 561.424C537.466 559.205 537.893 556.453 537.935 553.168L538.639 546.512H537.423C536.954 549.627 536.207 552.123 535.183 554C534.202 555.835 532.965 557.157 531.471 557.968C530.021 558.779 528.335 559.184 526.415 559.184C524.026 559.184 521.999 558.587 520.335 557.392C518.714 556.155 517.477 554.363 516.623 552.016C515.77 549.627 515.343 546.725 515.343 543.312V528.912H521.167V542.032C521.167 546.171 521.743 549.221 522.895 551.184C524.09 553.104 525.861 554.064 528.207 554.064C529.487 554.064 530.639 553.744 531.663 553.104C532.687 552.464 533.562 551.525 534.287 550.288C535.055 549.051 535.653 547.493 536.079 545.616C536.549 543.696 536.847 541.477 536.975 538.96V528.912H542.799V553.488C542.799 556.091 542.607 558.437 542.223 560.528C541.839 562.619 541.221 564.432 540.367 565.968C539.557 567.547 538.533 568.869 537.295 569.936C536.058 571.003 534.607 571.792 532.943 572.304C531.279 572.859 529.402 573.136 527.311 573.136Z" fill="#FFC736"/>
</g>
<defs>
<filter id="filter0_f_408_22" x="47.2422" y="-24.916" width="463.789" height="558.917" filterUnits="userSpaceOnUse" color-interpolation-filters="sRGB">
<feFlood flood-opacity="0" result="BackgroundImageFix"/>
<feBlend mode="normal" in="SourceGraphic" in2="BackgroundImageFix" result="shape"/>
<feGaussianBlur stdDeviation="32.5" result="effect1_foregroundBlur_408_22"/>
</filter>
<filter id="filter1_f_408_22" x="37.8148" y="498.596" width="522.884" height="92.5041" filterUnits="userSpaceOnUse" color-interpolation-filters="sRGB">
<feFlood flood-opacity="0" result="BackgroundImageFix"/>
<feBlend mode="normal" in="SourceGraphic" in2="BackgroundImageFix" result="shape"/>
<feGaussianBlur stdDeviation="8.95" result="effect1_foregroundBlur_408_22"/>
</filter>
<clipPath id="clip0_408_22">
<rect width="598" height="598" rx="47" fill="white"/>
</clipPath>
</defs>
</svg>
